<?xml version="1.0"?>
<svg xmlns="http://www.w3.org/2000/svg" xmlns:xlink="http://www.w3.org/1999/xlink" viewBox="0 0 512 512" width="512" height="512"><defs><linearGradient id="linear-gradient" x1="82.692" y1="402.692" x2="429.308" y2="56.075" gradientUnits="userSpaceOnUse"><stop offset="0" stop-color="#41dfd0"/><stop offset="1" stop-color="#ee83ef"/></linearGradient></defs><g id="gradient"><path d="M256,344a24,24,0,1,0,24,24A24.027,24.027,0,0,0,256,344Zm0,32a8,8,0,1,1,8-8A8.009,8.009,0,0,1,256,376Zm49.32-34.549a8,8,0,1,1-14.081,7.6,40.022,40.022,0,0,0-70.478,0,8,8,0,0,1-14.081-7.6,56.022,56.022,0,0,1,98.64,0ZM352.5,296.672a8,8,0,1,1-12.862,9.516,104,104,0,0,0-167.278,0,8,8,0,1,1-12.862-9.516,120,120,0,0,1,193,0Zm-23.567,22.062a8,8,0,1,1-13.248,8.971,72.033,72.033,0,0,0-119.372,0,8,8,0,1,1-13.248-8.971,88.032,88.032,0,0,1,145.868,0ZM464,280a32.056,32.056,0,0,0-30.987,24H392V264h16V248H392v-8a24.028,24.028,0,0,0-24-24H328V155.313l55.758-55.757a32.037,32.037,0,1,0-11.314-11.314l-58.1,58.1A8,8,0,0,0,312,152v64H296V184H280v32H264V102.987a32,32,0,1,0-16,0V216H232V184H216v32H200V152a8,8,0,0,0-2.343-5.657l-58.1-58.1a32.037,32.037,0,1,0-11.314,11.314L184,155.313V216H144a24.028,24.028,0,0,0-24,24v8H104v16h16v40H78.987a32,32,0,1,0,0,16H120v40H88v16h32v24a24.028,24.028,0,0,0,24,24h79.906a20.808,20.808,0,0,1-11.484,16.845A8,8,0,0,0,208,448v16a8,8,0,0,0,8,8h80a8,8,0,0,0,8-8V448a8,8,0,0,0-4.422-7.155A20.808,20.808,0,0,1,288.094,424H368a24.028,24.028,0,0,0,24-24V376h32V360H392V320h41.013A32,32,0,1,0,464,280ZM400,56a16,16,0,1,1-16,16A16.019,16.019,0,0,1,400,56ZM112,88a16,16,0,1,1,16-16A16.019,16.019,0,0,1,112,88ZM48,328a16,16,0,1,1,16-16A16.019,16.019,0,0,1,48,328ZM240,72a16,16,0,1,1,16,16A16.019,16.019,0,0,1,240,72Zm48,384H224v-3.446A36.68,36.68,0,0,0,239.943,424h32.114A36.68,36.68,0,0,0,288,452.554Zm88-80H296a8,8,0,0,0,0,16h80v8a8.009,8.009,0,0,1-8,8H144a8.009,8.009,0,0,1-8-8v-8h80a8,8,0,0,0,0-16H136V240a8.009,8.009,0,0,1,8-8H368a8.009,8.009,0,0,1,8,8Zm88-48a16,16,0,1,1,16-16A16.019,16.019,0,0,1,464,328ZM232,168H216V152h16Zm48,0V152h16v16ZM88,264H72V248H88ZM72,360v16H56V360Zm352-96V248h16v16Zm32,112H440V360h16Z" style="fill:url(#linear-gradient)"/></g></svg>
